<svg xmlns="http://www.w3.org/2000/svg" xmlns:xlink="http://www.w3.org/1999/xlink" viewBox="0 0 24 30" version="1.1" x="0px" y="0px"><title>Ico/Actions/Hide</title><g stroke="none" stroke-width="1" fill="none" fill-rule="evenodd"><path d="M20.1699375,8.44258641 C20.4778455,7.98409856 21.0991321,7.86202948 21.5576199,8.16993748 C22.0161078,8.47784548 22.1381769,9.09913207 21.8302689,9.55761992 C20.7832576,11.1166633 19.6787017,12.3984291 18.5177293,13.3966991 L19.6157827,15.2977474 C19.8919251,15.77604 19.7280499,16.3876304 19.2497573,16.6637728 C18.8056285,16.9201907 18.2465643,16.7972058 17.9478689,16.3953804 L17.8837319,16.2977474 L16.894714,14.5847246 C15.6547387,15.3401301 14.3562682,15.7959235 13.0005103,15.9454489 L13.0001032,17.9986166 C13.0001032,18.5509014 12.5523879,18.9986166 12.0001032,18.9986166 C11.4872673,18.9986166 11.064596,18.6125765 11.0068309,18.1152378 L11.0001032,17.9986166 L10.999983,15.9454806 C9.64412131,15.7959878 8.34555515,15.3401834 7.10549236,14.5847246 L6.11647441,16.2977474 L6.05233746,16.3953804 C5.75364206,16.7972058 5.19457787,16.9201907 4.750449,16.6637728 C4.27215638,16.3876304 4.10828122,15.77604 4.3844236,15.2977474 L4.3844236,15.2977474 L5.48228087,13.3965304 C4.32138022,12.3982848 3.21688977,11.1165755 2.16993748,9.55761992 C1.86202948,9.09913207 1.98409856,8.47784548 2.44258641,8.16993748 C2.90107426,7.86202948 3.52236085,7.98409856 3.83026885,8.44258641 C6.34671092,12.1896735 9.06235538,14.0001032 12.0001032,14.0001032 C14.9378509,14.0001032 17.6534954,12.1896735 20.1699375,8.44258641 Z" fill="#000000"/></g><text x="0" y="39" fill="#000000" font-size="5px" font-weight="bold" font-family="'Helvetica Neue', Helvetica, Arial-Unicode, Arial, Sans-serif">Created by Evgenii Likhachov</text><text x="0" y="44" fill="#000000" font-size="5px" font-weight="bold" font-family="'Helvetica Neue', Helvetica, Arial-Unicode, Arial, Sans-serif">from the Noun Project</text></svg>