<svg xmlns="http://www.w3.org/2000/svg" viewBox="0 0 36 45" fill="none" x="0px" y="0px"><path fill-rule="evenodd" clip-rule="evenodd" d="M5 18C5 17.2492 5.3003 16.3089 5.94639 15.2829C6.58614 14.2669 7.53002 13.2244 8.72012 12.2849C11.1035 10.4034 14.3903 9 18 9C21.6097 9 24.8965 10.4034 27.2799 12.2849C28.47 13.2244 29.4139 14.2669 30.0536 15.2829C30.6997 16.3089 31 17.2492 31 18C31 18.7508 30.6997 19.6911 30.0536 20.7171C29.4139 21.7331 28.47 22.7756 27.2799 23.7151C24.8965 25.5966 21.6097 27 18 27C14.3903 27 11.1035 25.5966 8.72012 23.7151C7.53002 22.7756 6.58614 21.7331 5.94639 20.7171C5.3003 19.6911 5 18.7508 5 18ZM18 7C13.8778 7 10.1645 8.59657 7.48089 10.7151C6.13749 11.7756 5.03111 12.9831 4.25399 14.2171C3.4832 15.4411 3 16.7508 3 18C3 19.2492 3.4832 20.5589 4.25399 21.7829C5.03111 23.0169 6.13749 24.2244 7.48089 25.2849C10.1645 27.4034 13.8778 29 18 29C22.1222 29 25.8355 27.4034 28.5191 25.2849C29.8625 24.2244 30.9689 23.0169 31.746 21.7829C32.5168 20.5589 33 19.2492 33 18C33 16.7508 32.5168 15.4411 31.746 14.2171C30.9689 12.9831 29.8625 11.7756 28.5191 10.7151C25.8355 8.59657 22.1222 7 18 7ZM15 18C15 16.3431 16.3431 15 18 15C19.6569 15 21 16.3431 21 18C21 19.6569 19.6569 21 18 21C16.3431 21 15 19.6569 15 18ZM18 13C15.2386 13 13 15.2386 13 18C13 20.7614 15.2386 23 18 23C20.7614 23 23 20.7614 23 18C23 15.2386 20.7614 13 18 13Z" fill="black"/><text x="0" y="51" fill="#000000" font-size="5px" font-weight="bold" font-family="'Helvetica Neue', Helvetica, Arial-Unicode, Arial, Sans-serif">Created by Evgenii Likhachov</text><text x="0" y="56" fill="#000000" font-size="5px" font-weight="bold" font-family="'Helvetica Neue', Helvetica, Arial-Unicode, Arial, Sans-serif">from the Noun Project</text></svg>